inDegrees=no
num_controls=7
num_derivatives=13
num_iterations=229
num_multipliers=7
num_parameters=0
num_slacks=7
num_states=26
objective=5.399691
objective_accelerations=0.364138
objective_balance=0.041152
objective_effort=0.373902
objective_height=4.547708
objective_ligament=0.072791
solver_duration=2232.306421
status=Solve_Succeeded
success=true
DataType=double
version=3
OpenSimVersion=4.4-2022-07-23-0e9fedc
endheader
time	/jointset/ground_pelvis/pelvis_tilt/value	/jointset/ground_pelvis/pelvis_tx/value	/jointset/ground_pelvis/pelvis_ty/value	/jointset/hip_l/hip_flexion_l/value	/jointset/hip_l/hip_adduction_l/value	/jointset/hip_l/hip_rotation_l/value	/jointset/back/lumbar_extension/value	/jointset/patellofemoral_l/patellar_flexion_l/value	/jointset/knee_l/knee_flexion_l/value	/jointset/knee_l/knee_adduction_l/value	/jointset/knee_l/knee_rotation_l/value	/jointset/ankle_l/ankle_angle_l/value	/jointset/subtalar_l/subtalar_angle_l/value	/jointset/ground_pelvis/pelvis_tilt/speed	/jointset/ground_pelvis/pelvis_tx/speed	/jointset/ground_pelvis/pelvis_ty/speed	/jointset/hip_l/hip_flexion_l/speed	/jointset/hip_l/hip_adduction_l/speed	/jointset/hip_l/hip_rotation_l/speed	/jointset/back/lumbar_extension/speed	/jointset/patellofemoral_l/patellar_flexion_l/speed	/jointset/knee_l/knee_flexion_l/speed	/jointset/knee_l/knee_adduction_l/speed	/jointset/knee_l/knee_rotation_l/speed	/jointset/ankle_l/ankle_angle_l/speed	/jointset/subtalar_l/subtalar_angle_l/speed	/forceset/tau_hip_flexion_l	/forceset/tau_hip_adduction_l	/forceset/tau_hip_rotation_l	/forceset/tau_knee_flexion_l	/forceset/tau_ankle_angle_l	/forceset/tau_subtalar_angle_l	/forceset/tau_lumbar_extension	lambda_cid13_p0	lambda_cid13_p1	lambda_cid13_p2	lambda_cid13_p3	lambda_cid13_p4	lambda_cid13_p5	lambda_cid14_p0	/jointset/ground_pelvis/pelvis_tilt/accel	/jointset/ground_pelvis/pelvis_tx/accel	/jointset/ground_pelvis/pelvis_ty/accel	/jointset/hip_l/hip_flexion_l/accel	/jointset/hip_l/hip_adduction_l/accel	/jointset/hip_l/hip_rotation_l/accel	/jointset/back/lumbar_extension/accel	/jointset/patellofemoral_l/patellar_flexion_l/accel	/jointset/knee_l/knee_flexion_l/accel	/jointset/knee_l/knee_adduction_l/accel	/jointset/knee_l/knee_rotation_l/accel	/jointset/ankle_l/ankle_angle_l/accel	/jointset/subtalar_l/subtalar_angle_l/accel	gamma_cid13_p0	gamma_cid13_p1	gamma_cid13_p2	gamma_cid13_p3	gamma_cid13_p4	gamma_cid13_p5	gamma_cid14_p0
1	0.02057451709557357	-0.01163624266636875	0.765649188354624	0.9420966560511195	-0.3384737763018262	0.008680418911064181	-0.9599310885968813	1.198965527790308	1.198965527790312	-0.08980501857604511	-0.1745329251994329	0.3219652073387824	0.07103800778060387	0.1176404118964559	0.03102286799224607	0.05986958757149029	-0.3032484077538158	-0.001286377619514441	-0.066157255117349	-0.003095111690110378	-0.1617494481908021	-0.1617494481908031	0.001089944320731552	-1.110762082151901e-06	0.01480001145761017	0.006245257428098043	-0.2779255598184685	0.0372487525421341	-0.003906492519086533	-0.3450731556384753	-0.02620914298300871	0.04031623300755222	0.3740566053985703	-56.85678306217652	-8.773433375034932	2.33715643660369	14.71184932974419	-775.0984550205088	-78.89212528089089	-1.093854759656183	0.3470009861226991	-0.01403135623273061	1.064349781482284	-3.361458897322453	0.05359538892960184	-1.411333679249696	0.5949493746567471	-4.233782052851173	-4.233782052851085	-0.1947505742073823	-0.01218461925125684	-1.520327160998952	-0.597662312654312	-9.604569554503295e-09	7.311277558873218e-09	3.972964589942926e-08	7.175340384297398e-09	-2.297336979475787e-08	5.494490528305932e-08	-9.742714880943031e-09
1.01	0.02176771480131185	-0.01132659418890306	0.7663008929127758	0.938897069301821	-0.3384834416930338	0.007947942476231078	-0.9599310885968813	1.197136865432204	1.197136865432212	-0.08980259904993983	-0.1745329251994329	0.3220375069225513	0.07107145244697108	0.1209787040046873	0.03091922048515801	0.07046116218847433	-0.3366436114019423	-0.0006414587888437824	-0.08033069147957231	0.003171017017829611	-0.2039726262077243	-0.2039726262077252	-0.0006071569258532819	8.551918831845678e-07	-0.0003329646138959662	0.0004541688242115292	-0.2774618661007172	0.03738197639496548	-0.003952317524542034	-0.3446753329820916	-0.02639853135673766	0.04041776697532488	0.3740765148388421	-56.89693368724869	-8.830408073285774	2.36898033036575	14.50950633695002	-775.0222165704641	-78.95906860344806	-1.12424000526964	0.3241784549753736	-0.006669989836656533	1.055031297100112	-3.324753286872897	0.07072278563584232	-1.41925906987837	0.6538307536629993	-4.215023456232934	-4.215023456232969	-0.1573636177821672	0.006302019223300584	-1.508714581039929	-0.5682645516153979	-1.514150940019539e-08	-1.442041468056732e-09	5.74708271217639e-08	1.249856830888515e-08	-2.856425695693132e-08	5.32098536842691e-08	-1.314820272379232e-08
1.02	0.02299368245449285	-0.01101760989488622	0.7670582072161561	0.935364290078378	-0.3384865013648348	0.007073949586741763	-0.9598661599023484	1.194886283737906	1.194886283737919	-0.08981718527987981	-0.1745329251994329	0.3219586903954426	0.07104729974382749	0.1241944013849993	0.03089003130247811	0.08099153661720496	-0.369886902582675	3.476626182862979e-05	-0.09446054604858474	0.009892591117784736	-0.2461333154294544	-0.2461333154294553	-0.002311206888363495	-5.861940367603178e-07	-0.0154232107179416	-0.005274216474058172	-0.2769981723829671	0.03751520024779673	-0.003998142529994845	-0.3442775103257079	-0.02658791973046656	0.04051930094309732	0.3740964242791132	-56.95048299897072	-8.883831075443286	2.39886044198873	14.36068188029206	-775.1199132498089	-79.01622403385143	-1.162216383361321	0.3224820405388297	0.0008603086489012244	1.052109743831601	-3.331076403843707	0.05985663292994699	-1.402617320607528	0.6860384530597805	-4.221284293812762	-4.221284293812669	-0.1961403173924603	-0.01286608722832656	-1.511781167506852	-0.5851216515309571	-1.952823129984187e-08	-1.322726145732287e-08	7.435017309700591e-08	1.501917305299777e-08	-3.365292392503165e-08	4.665345690458712e-08	-1.631740277939592e-08
1.03	0.02425097992519264	-0.01070840832979221	0.7679204903183428	0.9314999277785844	-0.3384826413891256	0.006058944396628568	-0.9597308266374138	1.192214447649104	1.192214447649099	-0.08984890162291549	-0.1745329251994329	0.3217293582150526	0.07096627201452986	0.127223166848783	0.03097656854631552	0.09145209094680809	-0.4029516785273402	0.0007424265143977688	-0.1085305730862435	0.01734074561127914	-0.2882199130653926	-0.288219913065392	-0.004035364021418647	6.168801295016356e-08	-0.03041871970253622	-0.01091148354917591	-0.2770572306785357	0.0377126490524702	-0.004058373948453256	-0.3435320129260484	-0.02677045669199178	0.04069954923560871	0.374786115034607	-56.99956972131602	-8.985173902566531	2.451175889603984	13.97002352652839	-775.4143411614144	-79.10513870114102	-1.208112127972739	0.2867836791757565	0.01649697408712992	1.041071568428277	-3.289098574939789	0.07699312843261193	-1.407725409888711	0.7992065088205664	-4.200245192620566	-4.200245192620383	-0.1610587791182057	0.006532095366206011	-1.489762607256812	-0.5500588744557728	-2.390321628167156e-08	-2.504341921151082e-08	9.12207248350327e-08	1.751117960139123e-08	-3.87364661972741e-08	4.004786272510009e-08	-1.948419173512967e-08
1.04	0.02553730702650583	-0.01039755208389263	0.768886987622006	0.9273059336423115	-0.3384715503294885	0.004903532933229961	-0.9595160113152792	1.189122166045116	1.189122166045092	-0.08989796061085278	-0.1745329234526985	0.3213508055761525	0.07082946568669032	0.1300003275076713	0.0312209674635921	0.1018343769125564	-0.4358132698784805	0.001480983047455595	-0.1225418007056489	0.02578900255782547	-0.3302224184667795	-0.3302224184667774	-0.005779735868720344	7.843478461413105e-07	-0.04526730241997266	-0.01642993618243727	-0.2771162889741061	0.03791009785714328	-0.004118605366909228	-0.3427865155263893	-0.02695299365351695	0.04087979752811957	0.3754758057900993	-57.06212264744963	-9.083029002244666	2.501644329823893	13.6308046987019	-775.8848528855166	-79.18510655770183	-1.262304893714432	0.2721610795597509	0.03243264333673589	1.036456071060631	-3.290439485138734	0.06603588902768598	-1.390857436956864	0.8860589436701675	-4.204465846902494	-4.204465846902409	-0.2001832602417687	-0.01285113167162655	-1.482395914075216	-0.5613587631596779	-2.67996541685657e-08	-3.767355380114888e-08	1.056781535518956e-07	1.750439395628121e-08	-4.253122814563806e-08	3.008174131220305e-08	-2.207163034265257e-08
1.05	0.02685022909484898	-0.01008349481366485	0.7699568625297735	0.9227843983169228	-0.3384529184529915	0.003608393211835584	-0.9592120446872927	1.185610373387405	1.185610373387402	-0.08996462870747728	-0.1745329221728464	0.3208244573275857	0.07063806125907086	0.1325486597007553	0.03161360180556853	0.1121219428699151	-0.4684517468231145	0.002252480688463517	-0.1364721116220672	0.03514014448475462	-0.3721121217234322	-0.3721121217234302	-0.007556299328867443	-4.141745004280205e-07	-0.05998165549961251	-0.02182899216390157	-0.2767306845668434	0.0380583616675371	-0.004192464434462966	-0.341833715152782	-0.02693580412525376	0.04107320854777165	0.3756737295808997	-57.02567841523598	-9.20855095167658	2.561797236391284	13.26392133772534	-775.7916519823309	-79.27988615912975	-1.325239135480013	0.2408538100922105	0.04614959621512233	1.022098297353585	-3.244247143600729	0.08375940006925169	-1.392036353776389	0.9800150339989309	-4.177618908121468	-4.177618908121548	-0.1667688078310177	0.00628615785880854	-1.462854981185245	-0.5258913031259693	-2.964988745874312e-08	-5.032912516689476e-08	1.20060172174347e-07	1.741952105512421e-08	-4.628571570888083e-08	2.001060342326197e-08	-2.464096425179389e-08
1.06	0.02818757138930486	-0.009764817046699898	0.7711290513849705	0.9179377391531925	-0.338426361060398	0.002174366694318506	-0.9588104919966781	1.181680404428513	1.181680404428531	-0.09004913762248905	-0.17453292480414	0.3201515855529672	0.07039332381413951	0.134884372730219	0.03214506681102672	0.1222971663984783	-0.5008380375467479	0.003066086266747791	-0.150319159930169	0.04530621508346954	-0.4138576787030775	-0.4138576787030762	-0.009347899546208068	2.118152234288799e-09	-0.07457200763032744	-0.0270965396448124	-0.2763450801595816	0.03820662547793062	-0.004266323502013878	-0.3408809147791748	-0.02691861459699061	0.04126661956742324	0.3758716533716994	-57.00262461762016	-9.330703516229919	2.620242032446767	12.94595989494649	-775.8745003169053	-79.36714895672554	-1.397391465197146	0.2296372468357103	0.06019877603308806	1.013987585301535	-3.240002240938585	0.07445747648295586	-1.374204915293583	1.04904467802732	-4.175636591501001	-4.175636591501026	-0.2031906116804741	-0.01252816867178151	-1.457595724290229	-0.5350570630489827	-3.241756064042316e-08	-6.302850420287584e-08	1.311054607706076e-07	1.754848767125787e-08	-4.983007439095055e-08	9.811050317452681e-09	-2.678308633272555e-08
1.07	0.02954724355166553	-0.009440124803697929	0.7724023867868065	0.9127685125541475	-0.3383914642375001	0.000602380437834144	-0.9583032823406195	1.177333775386641	1.177333775386653	-0.09015172373187484	-0.1745329251994329	0.3193334357320631	0.07009656993205082	0.137016854790304	0.03281714662008154	0.1323466359998478	-0.532959954114134	0.003921590290311845	-0.1640609924464459	0.05626569352531786	-0.4554361469261129	-0.4554361469261122	-0.01117159571178741	-2.526283840629821e-07	-0.08903600856079828	-0.03222897110941716	-0.2757338001165584	0.03833652608498778	-0.004351829191191254	-0.3396842278307239	-0.026762376264814	0.04148367633870963	0.3758304581894478	-56.90788857224061	-9.481651336992787	2.69010265725159	12.55992477903225	-775.5655041845525	-79.46782849589185	-1.479301203594761	0.2000712692606657	0.07428084769782324	0.9969242296066592	-3.191190021242977	0.09233100490865019	-1.371635449809511	1.138896036823543	-4.144148715442855	-4.144148715442937	-0.1723170625219983	0.006255845636191317	-1.437515007380543	-0.4985506833713927	-3.518084232697036e-08	-7.57302134340822e-08	1.419732637271772e-07	1.768882872980061e-08	-5.336325600487277e-08	-3.953333849985353e-10	-2.89024843802418e-08
1.08	0.03092724405136024	-0.009107998109734181	0.7737755164010667	0.9072794860581075	-0.3383477655464434	-0.001106516749816026	-0.9576825785782304	1.17257232230699	1.172572322306997	-0.09027261839162132	-0.1745329240959456	0.3183713033558632	0.06974924883627505	0.1389500401970198	0.03363195700338269	0.1422560088832984	-0.5647980169456945	0.004826459898496791	-0.1777013461633137	0.06800503634956447	-0.4968224862586702	-0.4968224862586704	-0.01300960961838014	6.915563094625849e-07	-0.1033685186894705	-0.0372099823822287	-0.2751225200735363	0.03846642669204466	-0.004437334880365874	-0.3384875408822731	-0.02660613793263738	0.04170073310999558	0.3757892630071953	-56.8264701052702	-9.629350646851076	2.758397949578717	12.22019359860016	-775.4324929043476	-79.56266779306075	-1.571538683226731	0.1897779161618533	0.08874489088235339	0.9859682417177745	-3.18323149377348	0.08433059340713531	-1.353909155411766	1.20501755450698	-4.137210813405381	-4.137210813405437	-0.2060541598831526	-0.01228838242581482	-1.431297563930498	-0.5047730246903355	-3.728405218378343e-08	-8.790127089475472e-08	1.487398555640694e-07	1.733666558065898e-08	-5.616316419717235e-08	-1.090383515847624e-08	-3.037255681971627e-08
